<?xml version="1.0" standalone="no"?>
<!DOCTYPE svg PUBLIC "-//W3C//DTD SVG 20010904//EN"
 "http://www.w3.org/TR/2001/REC-SVG-20010904/DTD/svg10.dtd">
<svg version="1.0" xmlns="http://www.w3.org/2000/svg"
 width="350.000000pt" height="106.000000pt" viewBox="0 0 350.000000 106.000000"
 preserveAspectRatio="xMidYMid meet">
<metadata>
Created by potrace 1.16, written by Peter Selinger 2001-2019
</metadata>
<g transform="translate(0.000000,106.000000) scale(0.100000,-0.100000)"
fill="#000000" stroke="none">
<path d="M367 896 c-112 -40 -195 -162 -183 -268 10 -91 34 -123 255 -343
l211 -210 211 210 c221 220 245 252 255 343 11 93 -55 206 -149 253 -86 45
-193 34 -273 -28 l-44 -33 -45 35 c-72 54 -158 69 -238 41z m185 -31 c18 -8
48 -28 67 -45 l34 -30 38 35 c49 44 131 69 195 59 25 -3 48 -13 51 -21 20 -51
-134 -303 -185 -303 -9 0 -26 10 -38 21 -42 40 -73 3 -34 -39 11 -12 20 -25
20 -29 0 -4 -28 -35 -61 -69 -63 -63 -72 -94 -29 -94 14 0 20 -7 20 -21 0 -12
8 -23 18 -26 10 -2 22 -14 28 -26 5 -12 17 -21 27 -21 10 1 17 -5 17 -15 0 -9
5 -22 12 -29 10 -10 2 -22 -35 -60 l-47 -47 -125 125 c-82 81 -121 128 -115
134 20 20 9 46 -40 92 -28 26 -48 49 -45 52 3 3 30 -18 59 -47 56 -55 86 -63
86 -21 0 13 7 20 20 20 42 0 33 29 -26 85 -35 32 -52 55 -43 55 9 0 37 -23 63
-50 49 -52 68 -58 74 -25 3 11 -19 41 -59 81 l-63 64 29 30 c27 28 28 31 12
47 -16 16 -18 15 -45 -10 -15 -15 -33 -27 -39 -27 -12 0 -98 98 -98 113 0 14
57 47 98 58 41 10 116 3 159 -16z"/>
<path d="M2010 660 c-41 -23 -54 -25 -44 -7 4 6 -11 -4 -32 -24 -36 -33 -41
-35 -64 -23 -25 13 -25 14 -2 14 24 0 25 1 16 24 -17 45 -134 -12 -184 -91
-63 -100 -47 -193 34 -193 64 0 136 71 159 158 10 38 17 46 71 72 106 53 109
42 27 -96 -32 -54 -57 -102 -54 -106 11 -20 35 -2 87 67 59 76 118 135 137
135 11 0 2 -18 -61 -117 -40 -64 -47 -126 -14 -131 12 -2 38 13 68 39 49 43
57 67 10 30 -15 -11 -33 -21 -40 -21 -31 0 -12 50 56 146 37 53 50 100 33 117
-12 12 -57 -23 -136 -106 l-77 -82 51 92 c28 52 49 100 45 108 -7 20 -44 18
-86 -5z m-140 -103 c0 -91 -153 -228 -175 -157 -8 24 40 134 54 126 5 -4 14 1
19 9 12 22 63 55 85 55 13 0 17 -8 17 -33z"/>
<path d="M1412 652 c-63 -23 -92 -47 -92 -79 0 -25 23 -31 50 -13 13 9 13 10
0 11 -8 0 9 9 39 20 30 10 56 18 57 16 1 -1 -23 -41 -53 -90 -40 -63 -56 -97
-57 -125 l-1 -37 44 3 c84 5 181 65 217 134 24 46 18 103 -14 139 -24 27 -37
33 -83 36 -36 2 -72 -3 -107 -15z m173 -67 c14 -13 25 -33 25 -43 0 -58 -113
-142 -191 -142 -22 0 -39 4 -39 10 0 5 23 47 50 94 28 47 50 89 50 95 0 6 18
11 40 11 30 0 47 -7 65 -25z"/>
<path d="M2475 636 c-27 -18 -74 -54 -103 -81 -42 -38 -57 -46 -77 -41 -17 4
-31 0 -45 -14 -26 -26 -25 -40 2 -40 l21 0 -23 -25 c-13 -14 -29 -25 -36 -25
-12 0 -54 -50 -54 -64 0 -19 33 2 85 54 54 55 63 60 102 60 47 0 51 -6 27 -52
-14 -27 -14 -32 0 -46 13 -14 18 -12 50 12 39 29 47 43 17 27 -10 -6 -21 -8
-24 -4 -10 9 22 63 37 63 7 0 23 11 36 25 l23 25 -21 0 c-27 0 -27 2 -4 37 9
16 26 29 37 30 11 1 44 9 74 17 30 9 56 14 58 12 7 -7 -62 -106 -73 -106 -7 0
-22 -9 -35 -19 -20 -16 -22 -23 -13 -38 9 -14 7 -27 -9 -61 -15 -31 -18 -45
-10 -53 12 -12 29 11 48 66 7 21 16 29 28 27 10 -2 43 2 73 8 64 13 117 54
135 104 10 27 21 36 58 49 58 19 101 29 101 22 0 -14 -66 -105 -76 -105 -7 0
-22 -9 -35 -19 -20 -16 -22 -23 -13 -38 9 -14 7 -27 -9 -61 -15 -31 -18 -45
-10 -53 12 -12 29 11 48 66 7 21 16 29 28 27 36 -6 128 20 157 45 57 48 76
116 45 160 -20 29 -85 46 -139 38 -87 -14 -112 -24 -125 -52 l-12 -26 -19 31
c-28 46 -83 58 -180 40 -61 -12 -77 -13 -85 -2 -8 10 -21 5 -60 -20z"/>
</g>
</svg>
